<svg xmlns="http://www.w3.org/2000/svg" viewBox="0 0 360 360"><rect width="360" height="360" rx="42" fill="#ccfbf1"/><circle cx="180" cy="126" r="68" fill="#f2bd94"/><path d="M112 123c-2-65 126-94 145-2-42-28-98-26-145 2Z" fill="#5b3b2c"/><path d="M119 103c34-45 105-53 131 17-33-18-92-20-131-17Z" fill="#40281e"/><circle cx="153" cy="137" r="7" fill="#102a43"/><circle cx="207" cy="137" r="7" fill="#102a43"/><path d="M158 169q22 13 44 0" fill="none" stroke="#102a43" stroke-width="6" stroke-linecap="round"/><path d="M90 330c8-72 47-105 90-105s82 33 90 105" fill="#f97316"/><path d="M145 231h70v99h-70z" fill="#fb923c"/><path d="M164 238h32v46h-32z" fill="#fff"/><circle cx="269" cy="84" r="25" fill="#fff"/><path d="M259 84h20M269 74v20" stroke="#14b8a6" stroke-width="5" stroke-linecap="round"/></svg>